<svg width="78" height="10" viewBox="0 0 78 10" fill="none" xmlns="http://www.w3.org/2000/svg">
<path d="M54.543 5.51349C54.543 3.65505 56.2524 1.98828 58.7206 1.98828H64.5326V3.28035H59.2694C57.8059 3.28035 56.8702 4.38723 56.8312 5.4898C56.7922 6.59237 57.7309 7.83922 59.2304 7.83922H62.3763V6.3318H59.1524V5.07849H64.6496V9.04515H58.4087C56.0305 9.04515 54.543 7.30516 54.543 5.51564" fill="#090948"/>
<path d="M2.32457 1.27289V4.08961H5.39554C6.25625 4.08961 6.97301 3.29929 6.96101 2.65972C6.94902 2.02014 6.13929 1.27289 5.31457 1.27289H2.32457ZM6.43919 0.0820312C8.63145 0.0820312 9.58513 1.71651 9.57313 2.74801C9.53415 4.00778 8.07364 5.45275 6.33422 5.45275H2.31258V9.04256H0.0273438V0.0820312H6.43919Z" fill="#090948"/>
<path d="M11.362 8.67917C8.43799 7.60244 8.47698 3.51087 11.362 2.376C12.065 2.0919 12.8655 1.95605 13.6712 1.98407H17.9148V3.23308H13.9981C13.6992 3.22038 13.4002 3.25706 13.1242 3.34031C12.8481 3.42356 12.6023 3.55116 12.4057 3.7133C12.1922 3.87309 12.0283 4.06359 11.9249 4.27221C11.8215 4.48083 11.781 4.70283 11.8059 4.92354H17.9688V6.17255H11.8329C11.8207 6.36898 11.8627 6.5652 11.9563 6.74996C12.05 6.93473 12.1935 7.10441 12.3787 7.24927C12.5434 7.42123 12.7636 7.56197 13.0206 7.65948C13.2775 7.75698 13.5635 7.80835 13.8542 7.80917H17.9688V9.03879H13.3983C12.6864 9.05091 11.983 8.9252 11.362 8.67486" fill="#090948"/>
<path d="M22.0539 6.19007H24.5611L23.2805 3.7136L22.0539 6.19007ZM22.0929 1.98438H24.3781L28.4268 9.04125H26.0756L25.2778 7.43047H21.4151L20.5664 9.04125H18.2422L22.0929 1.98438Z" fill="#090948"/>
<path d="M30.8288 5.43892L34.5175 1.98047H37.4176L33.282 5.4583L37.2886 9.0395H34.3766L30.8288 5.43892ZM28.6875 1.99339H30.7868V9.04596H28.6875V1.99339Z" fill="#090948"/>
<path d="M40.3048 6.39792C40.292 6.74635 40.4384 7.08823 40.7217 7.37128C41.0216 7.70506 41.8643 7.71368 42.65 7.71368H44.8333V9.04236H42.2392C40.5178 9.04236 38.9253 8.80763 38.2055 7.6663C37.9648 7.28409 37.8528 6.86653 37.8787 6.44745V0H40.2958L40.3048 6.39792Z" fill="#090948"/>
<path d="M49.3686 3.17133C47.4283 3.21009 46.7595 4.36435 46.7715 5.45399C46.7715 6.62547 47.0564 7.85509 49.5666 7.83787C51.6659 7.83787 52.0647 6.66424 52.0647 5.45399C52.0647 4.24375 51.297 3.14333 49.3656 3.17133M49.4886 9.0395C46.3366 9.0395 44.5312 8.04245 44.5312 5.426C44.5312 3.4319 45.9888 1.98047 49.4526 1.98047C53.3093 1.98047 54.224 3.3393 54.311 5.49921C54.4219 8.31163 52.0737 9.0395 49.4886 9.0395Z" fill="#090948"/>
<path d="M67.8197 1.98438H65.3125V9.0434H67.8197V1.98438Z" fill="#090948"/>
<path d="M70.6235 9.0395H67.8164L71.4722 5.5186L67.8164 1.98262H70.7164L72.8577 4.30835L75.1549 1.98047H77.896L74.2792 5.48845L78.001 9.04165H75.2719L72.8427 6.65993L70.6235 9.0395Z" fill="#090948"/>
</svg>
